<?xml version="1.0" encoding="UTF-8"?>
<svg id="Layer_2" data-name="Layer 2" xmlns="http://www.w3.org/2000/svg" viewBox="0 0 294.17 278.68">
  <defs>
    <style>
      .cls-1 {
        fill: #b18857;
      }

      .cls-1, .cls-2 {
        stroke-width: 0px;
      }

      .cls-2 {
        fill: #202452;
      }
    </style>
  </defs>
  <g id="Layer_2-2" data-name="Layer 2">
    <g>
      <path class="cls-2" d="M294.17,131.6c0,81.23-65.85,147.08-147.08,147.08S0,212.83,0,131.6c0-33.4,11.13-64.19,29.88-88.87l12.34,9.35,44.57,33.8,16.91,12.82c-6.94,9.14-11.06,20.55-11.06,32.9,0,30.06,24.37,54.44,54.44,54.44s54.44-24.38,54.44-54.44c0-12.35-4.11-23.76-11.06-32.9l16.91-12.82,44.56-33.78,12.35-9.37c18.75,24.68,29.88,55.48,29.88,88.87Z"/>
      <path class="cls-1" d="M251.94,52.09l-44.56,33.78c-13.82-18.2-35.69-29.94-60.29-29.94s-46.47,11.74-60.29,29.94l-44.57-33.8C66.25,20.43,104.29,0,147.08,0s80.83,20.43,104.85,52.09Z"/>
    </g>
  </g>
</svg>